{
    "asset" : {
        "generator" : "Khronos glTF Blender I/O v3.3.32",
        "version" : "2.0"
    },
    "extensions": {
        "KHR_materials_variants": {
            "variants": [
                {"name": "Opaque_Mat"},
                {"name": "Transparent_Mat"}
            ]
        }
    },
    "scene" : 0,
    "scenes" : [
        {
            "name" : "Scene",
            "nodes" : [
                0
            ]
        }
    ],
    "nodes" : [
        {
            "mesh" : 0,
            "name" : "directional_light"
        }
    ],
    "materials" : [
        {
            "alphaMode": "OPAQUE",
            "name" : "lightM1",
            "pbrMetallicRoughness" : {
                "baseColorFactor" : [
                    1.0,
                    1.0,
                    0.4,
                    1
                ]
            },
            "extensions": {
                "KHR_materials_unlit": {}
            }
        },
        {
            "alphaMode": "BLEND",
            "name" : "lightM1",
            "pbrMetallicRoughness" : {
                "baseColorFactor" : [
                    1.0,
                    1.0,
                    0.4,
                    0.4
                ]
            },
            "extensions": {
                "KHR_materials_unlit": {}
            }
        }
    ],
    "meshes" : [
        {
            "name" : "directional_light",
            "primitives" : [
                {
                    "attributes" : {
                        "POSITION" : 0,
                        "NORMAL" : 1
                    },
                        "extensions": {
                        "KHR_materials_variants": {
                            "mappings": [
                                {
                                    "material": 0,
                                    "variants": [
                                        0
                                    ]
                                },
                                {
                                    "material": 1,
                                    "variants": [
                                        1
                                    ]
                                }
                            ]
                        }
                    },
                    "indices" : 2,
                    "material": 1
                }
            ]
        }
    ],
    "accessors" : [
        {
            "bufferView" : 0,
            "componentType" : 5126,
            "count" : 324,
            "max" : [
                0.013942097313702106,
                0.013942095451056957,
                0.04021572321653366
            ],
            "min" : [
                -0.013942097313702106,
                -0.013942099176347256,
                -0.06803224980831146
            ],
            "type" : "VEC3"
        },
        {
            "bufferView" : 1,
            "componentType" : 5126,
            "count" : 324,
            "type" : "VEC3"
        },
        {
            "bufferView" : 2,
            "componentType" : 5123,
            "count" : 570,
            "type" : "SCALAR"
        }
    ],
    "bufferViews" : [
        {
            "buffer" : 0,
            "byteLength" : 3888,
            "byteOffset" : 0,
            "target" : 34962
        },
        {
            "buffer" : 0,
            "byteLength" : 3888,
            "byteOffset" : 3888,
            "target" : 34962
        },
        {
            "buffer" : 0,
            "byteLength" : 1140,
            "byteOffset" : 7776,
            "target" : 34963
        }
    ],
    "buffers" : [
        {
            "byteLength" : 8916,
            "uri" : "data:application/octet-stream;base64,"
        }
    ]
}
