{
    "asset" : {
        "generator" : "Khronos glTF Blender I/O v3.3.32",
        "version" : "2.0"
    },
    "extensions": {
        "KHR_materials_variants": {
            "variants": [
                {"name": "Opaque_Mat"},
                {"name": "Transparent_Mat"}
            ]
        }
    },
    "scene" : 0,
    "scenes" : [
        {
            "name" : "Scene",
            "nodes" : [
                0
            ]
        }
    ],
    "nodes" : [
        {
            "mesh" : 0,
            "name" : "point_light"
        }
    ],
    "materials" : [
        {
            "alphaMode": "OPAQUE",
            "name" : "lightM1",
            "pbrMetallicRoughness" : {
                "baseColorFactor" : [
                    1.0,
                    1.0,
                    0.4,
                    1
                ]
            },
            "extensions": {
                "KHR_materials_unlit": {}
            }
        },
        {
            "alphaMode": "BLEND",
            "name" : "lightM1",
            "pbrMetallicRoughness" : {
                "baseColorFactor" : [
                    1.0,
                    1.0,
                    0.4,
                    0.4
                ]
            },
            "extensions": {
                "KHR_materials_unlit": {}
            }
        }
    ],
    "meshes" : [
        {
            "name" : "point_light.004",
            "primitives" : [
                {
                    "attributes" : {
                        "POSITION" : 0,
                        "NORMAL" : 1
                    },
                    "extensions": {
                        "KHR_materials_variants": {
                            "mappings": [
                                {
                                    "material": 0,
                                    "variants": [
                                        0
                                    ]
                                },
                                {
                                    "material": 1,
                                    "variants": [
                                        1
                                    ]
                                }
                            ]
                        }
                    },
                    "indices" : 2,
                    "material" : 1
                },
                {
                    "attributes" : {
                        "POSITION" : 3,
                        "NORMAL" : 4
                    },
                    "extensions": {
                        "KHR_materials_variants": {
                            "mappings": [
                                {
                                    "material": 0,
                                    "variants": [
                                        0
                                    ]
                                },
                                {
                                    "material": 1,
                                    "variants": [
                                        1
                                    ]
                                }
                            ]
                        }
                    },
                    "indices" : 5,
                    "material" : 1
                }
            ]
        }
    ],
    "accessors" : [
        {
            "bufferView" : 0,
            "componentType" : 5126,
            "count" : 2156,
            "max" : [
                0.028880994766950607,
                0.028880994766950607,
                0.012397782877087593
            ],
            "min" : [
                -0.028880996629595757,
                -0.028880994766950607,
                9.999999747378752e-05
            ],
            "type" : "VEC3"
        },
        {
            "bufferView" : 1,
            "componentType" : 5126,
            "count" : 2156,
            "type" : "VEC3"
        },
        {
            "bufferView" : 2,
            "componentType" : 5123,
            "count" : 2820,
            "type" : "SCALAR"
        },
        {
            "bufferView" : 3,
            "componentType" : 5126,
            "count" : 236,
            "max" : [
                0.028880994766950607,
                0.028880994766950607,
                9.999999747378752e-05
            ],
            "min" : [
                -0.028880996629595757,
                -0.028880994766950607,
                9.999999747378752e-05
            ],
            "type" : "VEC3"
        },
        {
            "bufferView" : 4,
            "componentType" : 5126,
            "count" : 236,
            "type" : "VEC3"
        },
        {
            "bufferView" : 5,
            "componentType" : 5123,
            "count" : 654,
            "type" : "SCALAR"
        }
    ],
    "bufferViews" : [
        {
            "buffer" : 0,
            "byteLength" : 25872,
            "byteOffset" : 0,
            "target" : 34962
        },
        {
            "buffer" : 0,
            "byteLength" : 25872,
            "byteOffset" : 25872,
            "target" : 34962
        },
        {
            "buffer" : 0,
            "byteLength" : 5640,
            "byteOffset" : 51744,
            "target" : 34963
        },
        {
            "buffer" : 0,
            "byteLength" : 2832,
            "byteOffset" : 57384,
            "target" : 34962
        },
        {
            "buffer" : 0,
            "byteLength" : 2832,
            "byteOffset" : 60216,
            "target" : 34962
        },
        {
            "buffer" : 0,
            "byteLength" : 1308,
            "byteOffset" : 63048,
            "target" : 34963
        }
    ],
    "buffers" : [
        {
            "byteLength" : 64356,
            "uri" : "data:application/octet-stream;base64,"
        }
    ]
}
