{
    "asset" : {
        "generator" : "Khronos glTF Blender I/O v3.3.32",
        "version" : "2.0"
    },
    "extensions": {
        "KHR_materials_variants": {
            "variants": [
                {"name": "Opaque_Mat"},
                {"name": "Transparent_Mat"}
            ]
        }
    },
    "scene" : 0,
    "scenes" : [
        {
            "name" : "Scene",
            "nodes" : [
                0
            ]
        }
    ],
    "nodes" : [
        {
            "mesh" : 0,
            "name" : "spot_light"
        }
    ],
    "materials" : [
        {
            "alphaMode": "OPAQUE",
            "name" : "lightM1",
            "pbrMetallicRoughness" : {
                "baseColorFactor" : [
                    1.0,
                    1.0,
                    0.4,
                    1
                ]
            },
            "extensions": {
                "KHR_materials_unlit": {}
            }
        },
        {
            "alphaMode": "BLEND",
            "name" : "lightM1",
            "pbrMetallicRoughness" : {
                "baseColorFactor" : [
                    1.0,
                    1.0,
                    0.4,
                    0.4
                ]
            },
            "extensions": {
                "KHR_materials_unlit": {}
            }
        }
    ],
    "meshes" : [
        {
            "name" : "spot_light",
            "primitives" : [
                {
                    "attributes" : {
                        "POSITION" : 0,
                        "NORMAL" : 1
                    },
                    "extensions": {
                        "KHR_materials_variants": {
                            "mappings": [
                                {
                                    "material": 0,
                                    "variants": [
                                        0
                                    ]
                                },
                                {
                                    "material": 1,
                                    "variants": [
                                        1
                                    ]
                                }
                            ]
                        }
                    },
                    "indices" : 2,
                    "material" : 1
                },
                {
                    "attributes" : {
                        "POSITION" : 3,
                        "NORMAL" : 4
                    },
                    "extensions": {
                        "KHR_materials_variants": {
                            "mappings": [
                                {
                                    "material": 0,
                                    "variants": [
                                        0
                                    ]
                                },
                                {
                                    "material": 1,
                                    "variants": [
                                        1
                                    ]
                                }
                            ]
                        }
                    },
                    "indices" : 5,
                    "material" : 1
                }
            ]
        }
    ],
    "accessors" : [
        {
            "bufferView" : 0,
            "componentType" : 5126,
            "count" : 1112,
            "max" : [
                -3.095245483564213e-05,
                0.0288741085678339,
                0.012394734658300877
            ],
            "min" : [
                -0.028880996629595757,
                -0.028880992904305458,
                9.999999747378752e-05
            ],
            "type" : "VEC3"
        },
        {
            "bufferView" : 1,
            "componentType" : 5126,
            "count" : 1112,
            "type" : "VEC3"
        },
        {
            "bufferView" : 2,
            "componentType" : 5123,
            "count" : 1464,
            "type" : "SCALAR"
        },
        {
            "bufferView" : 3,
            "componentType" : 5126,
            "count" : 162,
            "max" : [
                -3.095245483564213e-05,
                0.0288741085678339,
                0.012394734658300877
            ],
            "min" : [
                -0.028880996629595757,
                -0.028880992904305458,
                9.999999747378752e-05
            ],
            "type" : "VEC3"
        },
        {
            "bufferView" : 4,
            "componentType" : 5126,
            "count" : 162,
            "type" : "VEC3"
        },
        {
            "bufferView" : 5,
            "componentType" : 5123,
            "count" : 432,
            "type" : "SCALAR"
        }
    ],
    "bufferViews" : [
        {
            "buffer" : 0,
            "byteLength" : 13344,
            "byteOffset" : 0,
            "target" : 34962
        },
        {
            "buffer" : 0,
            "byteLength" : 13344,
            "byteOffset" : 13344,
            "target" : 34962
        },
        {
            "buffer" : 0,
            "byteLength" : 2928,
            "byteOffset" : 26688,
            "target" : 34963
        },
        {
            "buffer" : 0,
            "byteLength" : 1944,
            "byteOffset" : 29616,
            "target" : 34962
        },
        {
            "buffer" : 0,
            "byteLength" : 1944,
            "byteOffset" : 31560,
            "target" : 34962
        },
        {
            "buffer" : 0,
            "byteLength" : 864,
            "byteOffset" : 33504,
            "target" : 34963
        }
    ],
    "buffers" : [
        {
            "byteLength" : 34368,
            "uri" : "data:application/octet-stream;base64,"
        }
    ]
}
